<!--?xml version="1.0" encoding="utf-8"?-->
<!-- Generator: Adobe Illustrator 15.1.0, SVG Export Plug-In . SVG Version: 6.00 Build 0)  -->

<svg version="1.1" id="_x32_" xmlns="http://www.w3.org/2000/svg" xmlns:xlink="http://www.w3.org/1999/xlink" x="0px" y="0px" width="512px" height="512px" viewBox="0 0 512 512" style="width: 256px; height: 256px; opacity: 1;" xml:space="preserve">
<style type="text/css">

	.st0{fill:#fff;}

</style>
<g>
	<path class="st0" d="M512,186.521c0-24.609-19.953-44.563-44.563-44.563c-24.625,0-44.563,19.953-44.563,44.563
		c0,15.984,8.438,29.969,21.094,37.828c-10.531,31.109-33.25,85.781-61.875,81.844c-36.438-4.984-44.641-63.969-30.938-167.641
		c16.156-6.016,28.031-21.188,28.969-39.5c1.25-24.594-17.656-45.531-42.219-46.781c-24.594-1.25-45.531,17.656-46.781,42.234
		c-0.828,16.266,7.203,30.906,19.844,39.328C304.344,239.396,285.688,287.24,256,287.24s-48.344-47.844-54.969-153.406
		c12.625-8.422,20.672-23.063,19.844-39.328c-1.25-24.578-22.188-43.484-46.781-42.234c-24.563,1.25-43.469,22.188-42.219,46.781
		c0.938,18.313,12.813,33.484,28.969,39.5c13.703,103.672,5.5,162.656-30.938,167.641c-28.625,3.938-51.344-50.734-61.891-81.844
		c12.672-7.859,21.109-21.844,21.109-37.828c0-24.609-19.938-44.563-44.563-44.563C19.953,141.959,0,161.912,0,186.521
		c0,20.156,13.406,37.172,31.75,42.672l54.531,230.594h161.188h17.063h161.188l54.531-230.594
		C498.594,223.693,512,206.678,512,186.521z" style="fill: rgb(255, 255, 255);"></path>
</g>
</svg>
