<?xml version="1.0" standalone="no"?>
<!DOCTYPE svg PUBLIC "-//W3C//DTD SVG 20010904//EN"
 "http://www.w3.org/TR/2001/REC-SVG-20010904/DTD/svg10.dtd">
<svg version="1.0" xmlns="http://www.w3.org/2000/svg"
 width="1280.000000pt" height="1056.000000pt" viewBox="0 0 1280.000000 1056.000000"
 preserveAspectRatio="xMidYMid meet">
<metadata>
Created by potrace 1.15, written by Peter Selinger 2001-2017
</metadata>
<g transform="translate(0.000000,1056.000000) scale(0.100000,-0.100000)"
fill="#000000" stroke="none">
<path d="M4708 10493 c-88 -132 -258 -300 -403 -397 -232 -156 -456 -228 -710
-228 -242 1 -450 64 -710 216 l-60 35 -390 -601 c-215 -330 -393 -605 -396
-611 -4 -5 -26 4 -54 23 -26 18 -51 28 -55 24 -10 -11 -960 -1483 -960 -1489
0 -2 17 -14 37 -27 20 -13 41 -26 46 -30 6 -3 -229 -375 -521 -826 -390 -601
-532 -827 -532 -848 0 -26 13 -37 128 -110 70 -45 487 -314 927 -597 615 -397
803 -513 811 -504 7 7 251 383 543 837 293 454 536 824 541 823 8 -2 3504
-2253 7700 -4956 580 -374 1062 -681 1070 -683 14 -4 89 110 814 1240 126 196
156 250 145 257 -8 5 -1902 1225 -4209 2712 -4155 2676 -4296 2768 -4470 2880
l-89 57 211 328 c520 804 1316 2040 1336 2073 l22 37 -335 216 c-235 151 -344
216 -364 216 -24 0 -35 -11 -73 -67z"/>
</g>
</svg>
