<?xml version="1.0" standalone="no"?>
<!DOCTYPE svg PUBLIC "-//W3C//DTD SVG 20010904//EN"
 "http://www.w3.org/TR/2001/REC-SVG-20010904/DTD/svg10.dtd">
<svg version="1.0" xmlns="http://www.w3.org/2000/svg"
 width="848.000000pt" height="1280.000000pt" viewBox="0 0 848.000000 1280.000000"
 preserveAspectRatio="xMidYMid meet">
<metadata>
Created by potrace 1.15, written by Peter Selinger 2001-2017
</metadata>
<g transform="translate(0.000000,1280.000000) scale(0.100000,-0.100000)"
fill="#000000" stroke="none">
<path d="M3985 12519 c-183 -9 -419 -26 -550 -40 -49 -5 -135 -14 -190 -20
-732 -78 -1695 -293 -2535 -565 -62 -21 -142 -77 -201 -143 -74 -83 -115 -176
-178 -404 -60 -218 -140 -1390 -141 -2060 0 -518 41 -1266 90 -1657 6 -41 17
-133 25 -205 31 -254 91 -617 151 -915 363 -1793 1121 -3398 2249 -4760 401
-484 904 -996 1385 -1410 85 -73 171 -148 189 -167 19 -18 46 -36 60 -40 15
-3 47 -25 73 -49 58 -54 104 -61 176 -27 38 18 449 385 772 689 536 505 991
1052 1371 1649 967 1518 1523 3468 1674 5865 49 789 55 1735 15 2550 -6 113
-12 282 -14 375 -4 187 -17 245 -78 354 -40 70 -139 175 -181 191 -17 7 -50
30 -72 51 -40 38 -118 71 -420 181 -576 209 -1353 404 -1860 468 -38 5 -106
14 -150 20 -523 69 -1139 95 -1660 69z"/>
</g>
</svg>
