<?xml version="1.0" standalone="no"?>
<!DOCTYPE svg PUBLIC "-//W3C//DTD SVG 20010904//EN"
 "http://www.w3.org/TR/2001/REC-SVG-20010904/DTD/svg10.dtd">
<svg version="1.0" xmlns="http://www.w3.org/2000/svg"
 width="752.000000pt" height="1280.000000pt" viewBox="0 0 752.000000 1280.000000"
 preserveAspectRatio="xMidYMid meet">
<metadata>
Created by potrace 1.15, written by Peter Selinger 2001-2017
</metadata>
<g transform="translate(0.000000,1280.000000) scale(0.100000,-0.100000)"
fill="#000000" stroke="none">
<path d="M5 12768 c2 -12 41 -246 85 -518 44 -272 84 -506 88 -520 5 -14 381
-711 837 -1550 455 -839 1224 -2254 1708 -3145 484 -891 949 -1748 1034 -1905
147 -269 404 -683 1314 -2110 89 -140 133 -217 126 -222 -22 -12 -252 -60
-382 -79 -163 -24 -436 -40 -580 -33 l-110 5 40 -22 c68 -38 202 -87 309 -113
160 -39 275 -49 489 -43 224 7 350 27 551 86 160 48 139 56 208 -77 23 -46 46
-86 49 -88 13 -8 79 -132 79 -148 0 -9 4 -16 9 -16 10 0 92 -135 95 -157 1 -8
7 -18 12 -21 14 -10 94 -148 94 -163 0 -6 6 -17 14 -23 8 -6 33 -47 56 -91 23
-44 47 -87 54 -95 24 -28 76 -127 76 -144 0 -9 4 -16 10 -16 10 0 91 -134 94
-157 1 -8 7 -18 12 -21 15 -11 94 -149 94 -165 0 -8 6 -17 13 -20 6 -3 30 -40
52 -83 22 -43 45 -84 51 -91 21 -22 84 -141 84 -157 0 -9 4 -16 9 -16 12 0 91
-134 91 -154 0 -8 6 -19 13 -23 18 -11 100 -153 93 -160 -3 -4 2 -12 12 -19 9
-7 35 -47 57 -91 22 -43 43 -80 46 -83 17 -14 49 -78 49 -99 0 -83 77 -185
156 -209 187 -55 364 111 313 295 -9 35 -27 62 -65 99 -55 54 -80 91 -76 112
2 6 -2 12 -7 12 -12 0 -91 131 -95 155 -1 9 -7 20 -13 23 -5 4 -29 41 -52 82
-23 41 -46 82 -51 90 -61 101 -90 154 -90 166 0 8 -4 14 -9 14 -13 0 -96 151
-93 167 2 7 -2 13 -7 13 -12 0 -91 131 -95 155 -1 9 -7 20 -13 23 -5 4 -29 41
-52 82 -51 90 -50 88 -101 173 -22 38 -40 73 -40 78 0 5 -8 18 -17 29 -10 11
-36 53 -58 93 -22 40 -59 105 -82 143 -24 39 -43 78 -43 87 0 9 -6 20 -13 24
-8 4 -33 42 -56 83 -23 41 -46 82 -51 90 -57 95 -90 154 -90 162 0 6 -6 16
-14 22 -8 6 -32 45 -54 86 -21 41 -58 104 -81 140 -23 36 -44 76 -48 90 -3 14
-13 30 -21 36 -11 8 6 29 93 110 354 328 577 757 620 1194 l6 65 -64 -115
c-126 -226 -211 -354 -355 -529 -94 -114 -243 -271 -258 -271 -5 0 -270 476
-590 1058 l-581 1057 -1847 3058 c-1016 1682 -1926 3190 -2024 3352 l-177 293
-413 339 c-228 186 -418 340 -423 341 -6 2 -7 -6 -4 -20z"/>
</g>
</svg>
